<svg id="Layer_1" data-name="Layer 1" xmlns="http://www.w3.org/2000/svg" viewBox="0 0 572.75 425"><defs><style>.cls-1{fill:#fff;}</style></defs><title>southpaw</title><path class="cls-1" d="M59.19,358.52q4-1.45,8.06-2.84c2.37,4.09,6.31,5.61,10.34,4.27a6.45,6.45,0,0,0,4.26-8.35c-1.34-4.44-5.1-4.95-11.74-4.9-4.39.08-7.88.21-10.95-1.28a13.35,13.35,0,0,1-6.85-7.94,15.07,15.07,0,0,1,9.11-19.29,16.08,16.08,0,0,1,9.83-.05l-.53-1.76q3.91-1.26,7.84-2.47L82.35,327q-4.41,1.36-8.8,2.78c-2.9-3.31-5.78-4.4-9.19-3.25a5.23,5.23,0,0,0-3.49,6.86c1.21,3.71,4.33,3.94,9.92,4,11.34,0,17.7,2.89,20.12,11.37a16.67,16.67,0,0,1-1.47,12.7A15.66,15.66,0,0,1,80.56,369a17.15,17.15,0,0,1-10,0l.64,2q-3.49,1.21-7,2.46Z"/><path class="cls-1" d="M103.27,313.56a25.57,25.57,0,0,1,16.57-12.18,25.06,25.06,0,0,1,19.8,3.42A26,26,0,0,1,151,322a29,29,0,0,1-3.28,20.43,25.21,25.21,0,0,1-15.86,12,24,24,0,0,1-19.63-3.47A28.3,28.3,0,0,1,100.45,334,26,26,0,0,1,103.27,313.56Zm7.23,18a17.19,17.19,0,0,0,6.84,9.94,15.25,15.25,0,0,0,12.17,2.64c8.06-2,13.35-10.35,11.38-20.19-1.76-8.75-10.18-14.34-18.56-12.3A16.06,16.06,0,0,0,110.5,331.54Z"/><path class="cls-1" d="M188.62,343.32c-6.74,1-11.71-.37-15-4.3-2.94-3.45-3.67-7.75-4.53-13q-2-12.09-4-24.17l-5.65,1-1.51-8.65q10.16-1.88,20.35-3.46l1.27,8.69-4.44.7,3.23,21.24c1.35,8.84,2.86,12.3,8.81,11.4s6.44-4.66,5.27-13.52L189.58,298l-4.52.65-1.2-8.7q10.24-1.51,20.51-2.71l1,8.73-5.76.7L202.45,321C204.07,334.94,200.52,341.55,188.62,343.32Z"/><path class="cls-1" d="M256,326.78q.19,4.43.38,8.86-10.17.47-20.33,1.25L235.4,328l5.3-.39-2.26-34.79q-3.72.26-7.44.55.29,3.9.59,7.81-3.71.3-7.43.63-.7-8.28-1.41-16.56,20.29-1.84,40.65-2.5l.51,16.61q-3.75.12-7.51.29-.16-3.91-.32-7.82-3.8.16-7.59.37.89,17.41,1.79,34.82Z"/><path class="cls-1" d="M289.35,291.22h-5.5q0-4.4,0-8.79,10.95,0,21.89.26-.11,4.39-.23,8.79l-6.08-.14q-.11,6.31-.22,12.63,8.64.16,17.28.54l.52-12.62-6.07-.24q.14-4.39.29-8.79,11,.39,21.94,1.11l-.55,8.77L327,292.4l-1.91,34.81,5.3.33-.55,8.85q-10.19-.68-20.41-1,.15-4.43.29-8.86l5.79.23q.28-6.72.55-13.43-8.53-.38-17.07-.53-.12,6.72-.24,13.44l5.79.13q-.11,4.43-.23,8.86-10.18-.28-20.36-.24,0-4.43,0-8.86h5.24Q289.28,308.65,289.35,291.22Z"/><path class="cls-1" d="M368.79,331.21l-1,8.8q-10.12-1.26-20.27-2.21.39-4.41.78-8.83l5.22.51,3.31-34.7-5.48-.53.77-8.76q9.71.9,19.39,2.08c4.81.59,8.28,1.27,10.8,3.41a16.39,16.39,0,0,1,5.41,14.72c-1.38,9.65-8.7,15.38-19.61,14l-3.76-.45-1.23,11.23Zm-1.1-20.44c5.56.67,8.78-1.57,9.34-6,.6-4.75-2-7.43-7.82-8.13l-2.73-.32-1.54,14.17Z"/><path class="cls-1" d="M405.24,336.94l4.83.9-1.53,8.57q-10-1.9-20.06-3.48l1.28-8.62,5.67.92Q404.47,319,414.14,303l-5.93-1.08,1.45-8.66q9,1.6,18,3.43,3.95,23.13,6.92,46.26l5.68,1.32-1.9,8.49q-10-2.38-20-4.43L420,339.8l4.88,1q-.41-2.73-.83-5.45-8.1-1.7-16.22-3.2Q406.52,334.55,405.24,336.94Zm15.14-26.57q-4.12,7-8.14,14.06,5.3,1,10.6,2.09Q421.67,318.45,420.38,310.37Z"/><path class="cls-1" d="M449.65,310.59l1.94-8.56q10.72,2.58,21.37,5.5l-2.19,8.5-5.07-1.37q0,13-.19,26.07,8.64-15.2,17.68-30.23,3.37,1,6.74,2,0,17.69-.51,35.31,6.51-11.15,13.23-22.21l-5-1.6,2.51-8.4q10.52,3.35,21,7l-2.75,8.32q-3.08-1.09-6.17-2.14-12.6,18.72-24.52,37.79-3.67-1.18-7.35-2.32.65-16.92.92-33.9-8.49,14.55-16.62,29.26-3.67-1-7.35-2-.31-22.68-1.35-45.45Z"/><path class="cls-1" d="M397.51,255.32l4.6-34A81,81,0,0,0,398.22,204c-2.74-8-7.22-15.16-12.14-22.74a75,75,0,0,1,19.59,21.32c-1.85-13-1.77-24,0-33.82,4-22.32-.35-37.07-2.66-41.7,0,2.36-3.9,9.11-7.73,11,1.69-4.36,5.61-21.2-1-37l5.74-2a88.71,88.71,0,0,1-8-14c-1.63-3.85-3.74-10.29-3.74-10.29a11.35,11.35,0,0,1-10.14,4.46c10.19-3.51,9.46-17.89,2.29-17.5a4.7,4.7,0,0,0-3,1.5C371,69.68,362.57,69.86,351,72c-12,2.25-10.46,11.54-10.46,11.54l-18.33,7.34a92.72,92.72,0,0,0,.76,11c.74,5.06,6.39,6.61,8.77,7.65,1.78.77,11.06,1.23,15.63,1.41,4.4-1.17,8.82-2.94,13.27-4.16l.76-.21c5,0,16.28,7.56,16.28,9.19-2-2-12.66-3.73-16.05-3.73C356,115.16,324,132.18,294.86,121c-3.23-1.24-8.61-4.87-8.61-7.54,1.93,1.93,11.39,4.61,15.08,4.61a15.27,15.27,0,1,0-30.39-2.14c0,5.57,2.77,9.92,7.68,13.19,11.22,7.48,56.94,12.35,78.78,26.34,2.17,0,10-4.67,13.52-8.15,0,3.89-10.19,14.19-13.62,14.19-8.55-4.67-18.34-9-26.18-10.63-1.15-.24-2.28-.54-3.42-.76,13,15.49,14.78,28.3,14.78,36.83a59,59,0,0,1-5.25,24.77s36.24,16.69,36.24,34.59a5.62,5.62,0,0,1-5.38,5.5c-3.51,0-6.6-1.1-8-1.1a2.32,2.32,0,0,0-2.37,2.37,31.79,31.79,0,0,0,1.38,7.29q16.22,1.74,32.31,4.26ZM352.63,83.68h0A2.32,2.32,0,0,1,351,79.34c4-1.64,8.68.55,8.74,1.52Z"/><path class="cls-1" d="M214.88,253a2.32,2.32,0,0,0-2.37-2.37c-1.42,0-4.51,1.1-8,1.1a5.62,5.62,0,0,1-5.38-5.5c0-17.89,36.16-34.59,36.16-34.59s-8-15.9-4.38-34c-2.32-.5-7.38-.37-12.94,0-3.36-2.55-14.74-11-14.27-28.83,5.88,14.56,14.13,21.08,15.75,22.31C257,171,286,183.53,286,190.33c-6-3.82-13.21-5.45-14.73-5.45a15.27,15.27,0,1,0,30.25,3,15.38,15.38,0,0,0-7.05-13c-8-4.79-21.61-7-31.57-12.47-27.8-15.24-28.8-38-28.8-49.8a41.4,41.4,0,0,0-11.76-8.36c-2.83.4-14.35,4.07-19,8.71,0-4.87,14.38-13.7,19.1-13.7,5,1,13,6.06,13.93,7,3.34-.23,11.42-1,11.42-1,2.85-.53,6.86-1.53,8.26-5.39a43.62,43.62,0,0,0,2.19-8.33L241.73,80.79s3.39-8.78-7.94-13.4C222.92,63,214.66,61.12,209.62,53.5a4.7,4.7,0,0,0-2.6-2.07c-7-1.82-10.54,12.13-1.26,17.61a11,11,0,0,1-9-6.4s-6.32,7.94-10.05,11.64a113.5,113.5,0,0,1-12.89,10.86l6.12,3.68c-2.22,5-6,12.16-6,26.24a58.16,58.16,0,0,0,4.24,20.88s-5.39-1.3-9.62-14c-3,11.12-3.24,19.42-3.24,29.42,0,21.59,9.35,36.86,1.82,61l.28-.19a71.9,71.9,0,0,1,15.69-6.4c-10.67,9.35-12.89,15.69-12.89,15.69l4.86,33.85,6.14,9.28q16.08-2.5,32.3-4.26A31.78,31.78,0,0,0,214.88,253Zm17.44-178.5a2.32,2.32,0,0,1-2.45,3.94h0l-6.4-4.19C223.71,73.34,228.73,72.13,232.33,74.54Z"/><path class="cls-1" d="M340.21,245.6c5.07-4.51,12.48-9.91,20.75-12-7.09-7-18-13.49-25.95-17.18l-.32-.15c-17.26,27.75-32.16,25.75-33.57,25.75a2.32,2.32,0,0,0-2.39,2.35c0,1.94,1.19,5.34,2,7.2q16.49.35,33,1.53A45.55,45.55,0,0,1,340.21,245.6Z"/><path class="cls-1" d="M273.66,244.41a2.32,2.32,0,0,0-2.39-2.35c-1.41,0-16.3,2-33.55-25.71l-.23.11c-8,3.69-18.84,10.24-25.92,17.21,8.21,2.08,15.58,7.44,20.62,11.93a45.56,45.56,0,0,1,6.52,7.56q16.47-1.15,33-1.54C272.47,249.75,273.66,246.36,273.66,244.41Z"/></svg>